<svg width="95" height="59" viewBox="0 0 95 59" fill="none" xmlns="http://www.w3.org/2000/svg">
<path d="M47.5 0C21.3 0 0 21.3 0 47.5C0 48.2 0.5 48.7 1.2 48.7H25.3C30.8 48.7 35.9 50.9 39.3 54.8C41.4 57.1 44.3 58.5 47.5 58.5C50.6 58.5 53.6 57.2 55.7 54.8C59.1 51 64.2 48.7 69.7 48.7H93.8C94.5 48.7 95 48.2 95 47.5C95 21.3 73.7 0 47.5 0ZM69.7 46.3C63.5 46.3 57.8 48.8 53.9 53.2C52.3 55 50 56.1 47.5 56.1C45.1 56.1 42.8 55.1 41.1 53.2C37.2 48.8 31.5 46.3 25.3 46.3H2.4C3.1 22 23 2.4 47.5 2.4C72 2.4 91.9 22 92.6 46.3H69.7Z" fill="black"/>
<path d="M54.2001 23.1C54.1001 23 53.9 22.9 53.8 22.9C53.6 22.9 53.5001 23 53.4001 23.1C53.3001 23.2 53.2001 23.4 53.2001 23.5C53.2001 23.7 53.3001 23.8 53.4001 23.9L54.4001 24.8V26.4C54.4001 26.5 54.4 26.6 54.5 26.6L55.7001 27.7V31.4C55.7001 31.7 55.4 32 55.1 32C54.8 32 54.5 31.7 54.5 31.4C54.5 30.2 53.5 29.2 52.3 29.2H52.1V21.4C52.1 21.1 51.8 20.8 51.5 20.8H43.1C42.8 20.8 42.5 21.1 42.5 21.4V35.2H41.9001C41.6001 35.2 41.3 35.5 41.3 35.8C41.3 36.1 41.6001 36.4 41.9001 36.4H52.5C52.8 36.4 53.1 36.1 53.1 35.8C53.1 35.5 52.8 35.2 52.5 35.2H51.9001V30.5V30.3H52.1C52.6 30.3 53 30.7 53 31.2C53 32.2 53.8001 33.1 54.9001 33.1C55.9001 33.1 56.8 32.3 56.8 31.2V25.5C56.8 25.3 56.7 25.2 56.6 25.1L54.2001 23.1ZM50.7001 27.3H43.6V22.1H50.7001V27.3ZM55.5 26.9L54.8 26.3V25.4L55.5 26V26.9Z" fill="black"/>
<path d="M46 15.3H49C49.3 15.3 49.5 15.1 49.5 14.8V7.3C49.5 7 49.3 6.8 49 6.8H46C45.7 6.8 45.5 7 45.5 7.3V14.8C45.5 15.1 45.7 15.3 46 15.3Z" fill="black"/>
<path d="M16.6 36.9L9.40001 35C9.10001 34.9 8.80001 35.1 8.80001 35.4L8.00001 38.2C7.90001 38.5 8.10001 38.8 8.40001 38.8L15.6 40.7C15.9 40.8 16.2 40.6 16.2 40.3L17 37.4C17.1 37.3 16.9 37 16.6 36.9Z" fill="#A70C0C"/>
<path d="M37.4 13.7C37.5 14 37.8 14.1 38 14.1L39.1 13.8C39.4 13.7 39.5 13.4 39.5 13.2L38.2 8.5C38.1 8.2 37.8 8.1 37.6 8.1L36.5 8.3C36.2 8.4 36.1 8.7 36.1 8.9L37.4 13.7Z" fill="black"/>
<path d="M29 17.4C29.1 17.6 29.5 17.7 29.7 17.6L30.7 17C30.9 16.9 31 16.5 30.9 16.3L28.5 12.1C28.4 11.9 28 11.8 27.8 11.9L26.8 12.5C26.6 12.6 26.5 13 26.6 13.2L29 17.4Z" fill="black"/>
<path d="M21.9 23.2C22.1 23.4 22.4 23.4 22.6 23.2L23.4 22.4C23.6 22.2 23.6 21.9 23.4 21.7L19.9 18.2C19.7 18 19.4 18 19.2 18.2L18.5 19C18.3 19.2 18.3 19.5 18.5 19.7L21.9 23.2Z" fill="black"/>
<path d="M12.4 28.2L16.6 30.6C16.8 30.7 17.2 30.7 17.3 30.4L17.9 29.4C18 29.2 18 28.8 17.7 28.7L13.5 26.3C13.3 26.2 12.9 26.2 12.8 26.5L12.2 27.5C12 27.8 12.1 28.1 12.4 28.2Z" fill="black"/>
<path d="M78 37.6L78.8 40.5C78.9 40.8 79.2 40.9 79.4 40.9L86.6 39C86.9 38.9 87 38.6 87 38.4L86.2 35.5C86.1 35.2 85.8 35.1 85.6 35.1L78.4 37C78.1 37 77.9 37.3 78 37.6Z" fill="black"/>
<path d="M58.5 8.3L57.4 8C57.1 7.9 56.8 8.1 56.8 8.4L55.5 13.1C55.4 13.4 55.6 13.7 55.9 13.7L57 14C57.3 14.1 57.6 13.9 57.6 13.6L58.9 8.9C59 8.7 58.8 8.4 58.5 8.3Z" fill="black"/>
<path d="M68.2 12.5L67.2 11.9C67 11.8 66.6 11.8 66.5 12.1L64.1 16.3C64 16.5 64 16.9 64.3 17L65.3 17.6C65.5 17.7 65.9 17.7 66 17.4L68.4 13.2C68.6 13 68.5 12.6 68.2 12.5Z" fill="black"/>
<path d="M75.7 18.3C75.5 18.1 75.2 18.1 75 18.3L71.5 21.7C71.3 21.9 71.3 22.2 71.5 22.4L72.3 23.2C72.5 23.4 72.8 23.4 73 23.2L76.5 19.7C76.7 19.5 76.7 19.2 76.5 19L75.7 18.3Z" fill="black"/>
<path d="M77.1 29.5L77.7 30.5C77.8 30.7 78.2 30.8 78.4 30.7L82.6 28.3C82.8 28.2 82.9 27.8 82.8 27.6L82.2 26.6C82.1 26.4 81.7 26.3 81.5 26.4L77.3 28.8C77.1 29 77 29.3 77.1 29.5Z" fill="black"/>
<path d="M83.3161 44V40.3636H85.7237V40.9975H84.0849V41.864H85.5639V42.4979H84.0849V44H83.3161Z" fill="black"/>
<path d="M9.31605 44V40.3636H11.7663V40.9975H10.0849V41.864H11.6403V42.4979H10.0849V43.3661H11.7734V44H9.31605Z" fill="#A70C0C"/>
</svg>
