<svg width="237" height="76" viewBox="0 0 237 76" fill="none" xmlns="http://www.w3.org/2000/svg">
<path d="M111.5 17C85.3 17 64 38.3 64 64.5C64 65.2 64.5 65.7 65.2 65.7H89.3C94.8 65.7 99.9 67.9 103.3 71.8C105.4 74.1 108.3 75.5 111.5 75.5C114.6 75.5 117.6 74.2 119.7 71.8C123.1 68 128.2 65.7 133.7 65.7H157.8C158.5 65.7 159 65.2 159 64.5C159 38.3 137.7 17 111.5 17ZM133.7 63.3C127.5 63.3 121.8 65.8 117.9 70.2C116.3 72 114 73.1 111.5 73.1C109.1 73.1 106.8 72.1 105.1 70.2C101.2 65.8 95.5 63.3 89.3 63.3H66.4C67.1 39 87 19.4 111.5 19.4C136 19.4 155.9 39 156.6 63.3H133.7Z" fill="black"/>
<path d="M118.2 40.1C118.1 40 117.9 39.9 117.8 39.9C117.6 39.9 117.5 40 117.4 40.1C117.3 40.2 117.2 40.4 117.2 40.5C117.2 40.7 117.3 40.8 117.4 40.9L118.4 41.8V43.4C118.4 43.5 118.4 43.6 118.5 43.6L119.7 44.7V48.4C119.7 48.7 119.4 49 119.1 49C118.8 49 118.5 48.7 118.5 48.4C118.5 47.2 117.5 46.2 116.3 46.2H116.1V38.4C116.1 38.1 115.8 37.8 115.5 37.8H107.1C106.8 37.8 106.5 38.1 106.5 38.4V52.2H105.9C105.6 52.2 105.3 52.5 105.3 52.8C105.3 53.1 105.6 53.4 105.9 53.4H116.5C116.8 53.4 117.1 53.1 117.1 52.8C117.1 52.5 116.8 52.2 116.5 52.2H115.9V47.5V47.3H116.1C116.6 47.3 117 47.7 117 48.2C117 49.2 117.8 50.1 118.9 50.1C119.9 50.1 120.8 49.3 120.8 48.2V42.5C120.8 42.3 120.7 42.2 120.6 42.1L118.2 40.1ZM114.7 44.3H107.6V39.1H114.7V44.3ZM119.5 43.9L118.8 43.3V42.4L119.5 43V43.9Z" fill="black"/>
<path d="M110 32.3H113C113.3 32.3 113.5 32.1 113.5 31.8V24.3C113.5 24 113.3 23.8 113 23.8H110C109.7 23.8 109.5 24 109.5 24.3V31.8C109.5 32.1 109.7 32.3 110 32.3Z" fill="black"/>
<path d="M80.6 53.9L73.4 52C73.1 51.9 72.8 52.1 72.8 52.4L72 55.2C71.9 55.5 72.1 55.8 72.4 55.8L79.6 57.7C79.9 57.8 80.2 57.6 80.2 57.3L81 54.4C81.1 54.3 80.9 54 80.6 53.9Z" fill="#A70C0C"/>
<path d="M101.4 30.7C101.5 31 101.8 31.1 102 31.1L103.1 30.8C103.4 30.7 103.5 30.4 103.5 30.2L102.2 25.5C102.1 25.2 101.8 25.1 101.6 25.1L100.5 25.3C100.2 25.4 100.1 25.7 100.1 25.9L101.4 30.7Z" fill="black"/>
<path d="M93 34.4C93.1 34.6 93.5 34.7 93.7 34.6L94.7 34C94.9 33.9 95 33.5 94.9 33.3L92.5 29.1C92.4 28.9 92 28.8 91.8 28.9L90.8 29.5C90.6 29.6 90.5 30 90.6 30.2L93 34.4Z" fill="black"/>
<path d="M85.9 40.2C86.1 40.4 86.4 40.4 86.6 40.2L87.4 39.4C87.6 39.2 87.6 38.9 87.4 38.7L83.9 35.2C83.7 35 83.4 35 83.2 35.2L82.5 36C82.3 36.2 82.3 36.5 82.5 36.7L85.9 40.2Z" fill="black"/>
<path d="M76.4 45.2L80.6 47.6C80.8 47.7 81.2 47.7 81.3 47.4L81.9 46.4C82 46.2 82 45.8 81.7 45.7L77.5 43.3C77.3 43.2 76.9 43.2 76.8 43.5L76.2 44.5C76 44.8 76.1 45.1 76.4 45.2Z" fill="black"/>
<path d="M142 54.6L142.8 57.5C142.9 57.8 143.2 57.9 143.4 57.9L150.6 56C150.9 55.9 151 55.6 151 55.4L150.2 52.5C150.1 52.2 149.8 52.1 149.6 52.1L142.4 54C142.1 54 141.9 54.3 142 54.6Z" fill="black"/>
<path d="M122.5 25.3L121.4 25C121.1 24.9 120.8 25.1 120.8 25.4L119.5 30.1C119.4 30.4 119.6 30.7 119.9 30.7L121 31C121.3 31.1 121.6 30.9 121.6 30.6L122.9 25.9C123 25.7 122.8 25.4 122.5 25.3Z" fill="black"/>
<path d="M132.2 29.5L131.2 28.9C131 28.8 130.6 28.8 130.5 29.1L128.1 33.3C128 33.5 128 33.9 128.3 34L129.3 34.6C129.5 34.7 129.9 34.7 130 34.4L132.4 30.2C132.6 30 132.5 29.6 132.2 29.5Z" fill="black"/>
<path d="M139.7 35.3C139.5 35.1 139.2 35.1 139 35.3L135.5 38.7C135.3 38.9 135.3 39.2 135.5 39.4L136.3 40.2C136.5 40.4 136.8 40.4 137 40.2L140.5 36.7C140.7 36.5 140.7 36.2 140.5 36L139.7 35.3Z" fill="black"/>
<path d="M141.1 46.5L141.7 47.5C141.8 47.7 142.2 47.8 142.4 47.7L146.6 45.3C146.8 45.2 146.9 44.8 146.8 44.6L146.2 43.6C146.1 43.4 145.7 43.3 145.5 43.4L141.3 45.8C141.1 46 141 46.3 141.1 46.5Z" fill="black"/>
<path d="M147.316 61V57.3636H149.724V57.9975H148.085V58.864H149.564V59.4979H148.085V61H147.316Z" fill="black"/>
<path d="M73.3161 61V57.3636H75.7663V57.9975H74.0849V58.864H75.6403V59.4979H74.0849V60.3661H75.7734V61H73.3161Z" fill="#A70C0C"/>
<path d="M116.056 64.7683C115.611 63.7621 114.841 63.0092 113.877 62.5604L112.41 31.2845C112.38 30.9697 111.974 31.0399 111.963 31.2633L110.253 62.5223C108.057 63.4924 107.128 66.0897 108.098 68.2849C109.068 70.4801 111.706 71.501 113.901 70.5309C116.096 69.5608 117.026 66.9635 116.056 64.7683Z" fill="black"/>
<path d="M166.504 49.2727V58H164.659V51.0241H164.608L162.609 52.277V50.6406L164.77 49.2727H166.504ZM172 58.1918C171.267 58.1889 170.637 58.0085 170.108 57.6506C169.583 57.2926 169.178 56.7741 168.894 56.0952C168.613 55.4162 168.473 54.5994 168.476 53.6449C168.476 52.6932 168.617 51.8821 168.898 51.2116C169.182 50.5412 169.587 50.0312 170.113 49.6818C170.641 49.3295 171.27 49.1534 172 49.1534C172.73 49.1534 173.358 49.3295 173.884 49.6818C174.412 50.0341 174.819 50.5455 175.103 51.2159C175.387 51.8835 175.527 52.6932 175.525 53.6449C175.525 54.6023 175.382 55.4205 175.098 56.0994C174.817 56.7784 174.414 57.2969 173.888 57.6548C173.363 58.0128 172.733 58.1918 172 58.1918ZM172 56.6619C172.5 56.6619 172.9 56.4105 173.198 55.9077C173.496 55.4048 173.644 54.6506 173.641 53.6449C173.641 52.983 173.573 52.4318 173.436 51.9915C173.303 51.5511 173.113 51.2202 172.865 50.9986C172.621 50.777 172.333 50.6662 172 50.6662C171.503 50.6662 171.105 50.9148 170.807 51.4119C170.509 51.9091 170.358 52.6534 170.355 53.6449C170.355 54.3153 170.422 54.875 170.556 55.3239C170.692 55.7699 170.884 56.1051 171.131 56.3295C171.378 56.5511 171.668 56.6619 172 56.6619ZM180.262 58.1918C179.529 58.1889 178.898 58.0085 178.37 57.6506C177.844 57.2926 177.44 56.7741 177.156 56.0952C176.874 55.4162 176.735 54.5994 176.738 53.6449C176.738 52.6932 176.879 51.8821 177.16 51.2116C177.444 50.5412 177.849 50.0312 178.374 49.6818C178.903 49.3295 179.532 49.1534 180.262 49.1534C180.992 49.1534 181.62 49.3295 182.146 49.6818C182.674 50.0341 183.08 50.5455 183.364 51.2159C183.648 51.8835 183.789 52.6932 183.786 53.6449C183.786 54.6023 183.644 55.4205 183.36 56.0994C183.079 56.7784 182.675 57.2969 182.15 57.6548C181.624 58.0128 180.995 58.1918 180.262 58.1918ZM180.262 56.6619C180.762 56.6619 181.161 56.4105 181.46 55.9077C181.758 55.4048 181.906 54.6506 181.903 53.6449C181.903 52.983 181.835 52.4318 181.698 51.9915C181.565 51.5511 181.374 51.2202 181.127 50.9986C180.883 50.777 180.594 50.6662 180.262 50.6662C179.765 50.6662 179.367 50.9148 179.069 51.4119C178.771 51.9091 178.62 52.6534 178.617 53.6449C178.617 54.3153 178.684 54.875 178.817 55.3239C178.954 55.7699 179.146 56.1051 179.393 56.3295C179.64 56.5511 179.93 56.6619 180.262 56.6619ZM187.93 49.2727H190.206L192.609 55.1364H192.712L195.115 49.2727H197.391V58H195.601V52.3196H195.528L193.27 57.9574H192.051L189.793 52.2983H189.72V58H187.93V49.2727ZM198.877 58V51.4545H200.692V58H198.877ZM199.789 50.6108C199.519 50.6108 199.287 50.5213 199.094 50.3423C198.904 50.1605 198.809 49.9432 198.809 49.6903C198.809 49.4403 198.904 49.2259 199.094 49.0469C199.287 48.8651 199.519 48.7741 199.789 48.7741C200.059 48.7741 200.289 48.8651 200.479 49.0469C200.672 49.2259 200.769 49.4403 200.769 49.6903C200.769 49.9432 200.672 50.1605 200.479 50.3423C200.289 50.5213 200.059 50.6108 199.789 50.6108ZM203.962 49.2727V58H202.146V49.2727H203.962ZM207.231 49.2727V58H205.416V49.2727H207.231ZM211.643 58.1278C210.981 58.1278 210.408 57.9872 209.925 57.706C209.445 57.4219 209.075 57.027 208.813 56.5213C208.552 56.0128 208.421 55.4233 208.421 54.7528C208.421 54.0767 208.552 53.4858 208.813 52.9801C209.075 52.4716 209.445 52.0767 209.925 51.7955C210.408 51.5114 210.981 51.3693 211.643 51.3693C212.305 51.3693 212.876 51.5114 213.356 51.7955C213.839 52.0767 214.211 52.4716 214.472 52.9801C214.734 53.4858 214.864 54.0767 214.864 54.7528C214.864 55.4233 214.734 56.0128 214.472 56.5213C214.211 57.027 213.839 57.4219 213.356 57.706C212.876 57.9872 212.305 58.1278 211.643 58.1278ZM211.651 56.7216C211.952 56.7216 212.204 56.6364 212.406 56.4659C212.607 56.2926 212.759 56.0568 212.862 55.7585C212.967 55.4602 213.019 55.1207 213.019 54.7401C213.019 54.3594 212.967 54.0199 212.862 53.7216C212.759 53.4233 212.607 53.1875 212.406 53.0142C212.204 52.8409 211.952 52.7543 211.651 52.7543C211.347 52.7543 211.092 52.8409 210.884 53.0142C210.68 53.1875 210.525 53.4233 210.42 53.7216C210.317 54.0199 210.266 54.3594 210.266 54.7401C210.266 55.1207 210.317 55.4602 210.42 55.7585C210.525 56.0568 210.68 56.2926 210.884 56.4659C211.092 56.6364 211.347 56.7216 211.651 56.7216ZM217.86 54.2159V58H216.045V51.4545H217.775V52.6094H217.852C217.996 52.2287 218.239 51.9276 218.58 51.706C218.921 51.4815 219.335 51.3693 219.82 51.3693C220.275 51.3693 220.671 51.4688 221.009 51.6676C221.347 51.8665 221.61 52.1506 221.798 52.5199C221.985 52.8864 222.079 53.3239 222.079 53.8324V58H220.263V54.1562C220.266 53.7557 220.164 53.4432 219.957 53.2188C219.749 52.9915 219.464 52.8778 219.1 52.8778C218.856 52.8778 218.64 52.9304 218.452 53.0355C218.268 53.1406 218.123 53.294 218.018 53.4957C217.915 53.6946 217.863 53.9347 217.86 54.2159ZM226.493 58.1278C225.819 58.1278 225.24 57.9915 224.754 57.7188C224.271 57.4432 223.899 57.054 223.637 56.5511C223.376 56.0455 223.245 55.4474 223.245 54.7571C223.245 54.0838 223.376 53.4929 223.637 52.9844C223.899 52.4759 224.267 52.0795 224.741 51.7955C225.218 51.5114 225.778 51.3693 226.42 51.3693C226.852 51.3693 227.254 51.4389 227.626 51.5781C228.001 51.7145 228.328 51.9205 228.606 52.196C228.887 52.4716 229.106 52.8182 229.262 53.2358C229.419 53.6506 229.497 54.1364 229.497 54.6932V55.1918H223.97V54.0668H227.788C227.788 53.8054 227.731 53.5739 227.618 53.3722C227.504 53.1705 227.346 53.0128 227.145 52.8991C226.946 52.7827 226.714 52.7244 226.45 52.7244C226.174 52.7244 225.93 52.7884 225.717 52.9162C225.507 53.0412 225.342 53.2102 225.223 53.4233C225.103 53.6335 225.042 53.8679 225.039 54.1264V55.196C225.039 55.5199 225.099 55.7997 225.218 56.0355C225.341 56.2713 225.512 56.4531 225.734 56.581C225.956 56.7088 226.218 56.7727 226.522 56.7727C226.724 56.7727 226.909 56.7443 227.076 56.6875C227.244 56.6307 227.387 56.5455 227.507 56.4318C227.626 56.3182 227.717 56.179 227.779 56.0142L229.458 56.125C229.373 56.5284 229.199 56.8807 228.934 57.1818C228.673 57.4801 228.335 57.7131 227.92 57.8807C227.508 58.0455 227.032 58.1278 226.493 58.1278ZM236.127 53.321L234.466 53.4233C234.437 53.2812 234.376 53.1534 234.282 53.0398C234.189 52.9233 234.065 52.831 233.912 52.7628C233.761 52.6918 233.581 52.6562 233.37 52.6562C233.089 52.6562 232.852 52.7159 232.659 52.8352C232.466 52.9517 232.369 53.108 232.369 53.304C232.369 53.4602 232.431 53.5923 232.556 53.7003C232.681 53.8082 232.896 53.8949 233.2 53.9602L234.385 54.1989C235.021 54.3295 235.495 54.5398 235.808 54.8295C236.12 55.1193 236.277 55.5 236.277 55.9716C236.277 56.4006 236.15 56.777 235.897 57.1009C235.647 57.4247 235.304 57.6776 234.866 57.8594C234.431 58.0384 233.93 58.1278 233.362 58.1278C232.495 58.1278 231.805 57.9474 231.291 57.5866C230.779 57.223 230.48 56.7287 230.392 56.1037L232.177 56.0099C232.231 56.2741 232.362 56.4759 232.569 56.6151C232.777 56.7514 233.042 56.8196 233.366 56.8196C233.684 56.8196 233.94 56.7585 234.133 56.6364C234.329 56.5114 234.429 56.3509 234.431 56.1548C234.429 55.9901 234.359 55.8551 234.223 55.75C234.086 55.642 233.876 55.5597 233.592 55.5028L232.458 55.277C231.819 55.1491 231.343 54.9276 231.031 54.6122C230.721 54.2969 230.566 53.8949 230.566 53.4062C230.566 52.9858 230.68 52.6236 230.907 52.3196C231.137 52.0156 231.46 51.7812 231.875 51.6165C232.292 51.4517 232.781 51.3693 233.341 51.3693C234.167 51.3693 234.818 51.544 235.292 51.8935C235.77 52.2429 236.048 52.7187 236.127 53.321Z" fill="black"/>
<path d="M60.6799 52.6159C60.4678 52.7927 60.4391 53.108 60.6159 53.3201L63.4967 56.7771C63.6735 56.9892 63.9888 57.0179 64.2009 56.8411C64.4131 56.6643 64.4417 56.349 64.2649 56.1369L61.7042 53.064L64.7771 50.5033C64.9892 50.3265 65.0179 50.0112 64.8411 49.7991C64.6643 49.5869 64.349 49.5583 64.1369 49.7351L60.6799 52.6159ZM72.0453 53.5021L61.0453 52.5021L60.9547 53.4979L71.9547 54.4979L72.0453 53.5021Z" fill="#9D9D9D"/>
<path d="M111.354 13.6464C111.158 13.4512 110.842 13.4512 110.646 13.6464L107.464 16.8284C107.269 17.0237 107.269 17.3403 107.464 17.5355C107.66 17.7308 107.976 17.7308 108.172 17.5355L111 14.7071L113.828 17.5355C114.024 17.7308 114.34 17.7308 114.536 17.5355C114.731 17.3403 114.731 17.0237 114.536 16.8284L111.354 13.6464ZM111.5 23V14H110.5V23H111.5Z" fill="#9D9D9D"/>
<path d="M162.384 53.3201C162.561 53.108 162.532 52.7927 162.32 52.6159L158.863 49.7351C158.651 49.5583 158.336 49.5869 158.159 49.7991C157.982 50.0112 158.011 50.3265 158.223 50.5033L161.296 53.064L158.735 56.1369C158.558 56.349 158.587 56.6643 158.799 56.8411C159.011 57.0179 159.326 56.9892 159.503 56.7771L162.384 53.3201ZM151.045 54.4979L162.045 53.4979L161.955 52.5021L150.955 53.5021L151.045 54.4979Z" fill="#9D9D9D"/>
<path d="M80.8949 12.1193C80.2926 12.1193 79.7557 12.0085 79.2841 11.7869C78.8153 11.5653 78.4432 11.2599 78.1676 10.8707C77.892 10.4815 77.7486 10.0355 77.7372 9.53267H79.527C79.5469 9.87074 79.6889 10.1449 79.9531 10.3551C80.2173 10.5653 80.5312 10.6705 80.8949 10.6705C81.1847 10.6705 81.4403 10.6065 81.6619 10.4787C81.8864 10.348 82.0611 10.1676 82.1861 9.9375C82.3139 9.70455 82.3778 9.4375 82.3778 9.13636C82.3778 8.82955 82.3125 8.55966 82.1818 8.3267C82.054 8.09375 81.8764 7.91193 81.6491 7.78125C81.4219 7.65057 81.1619 7.58381 80.8693 7.58097C80.6136 7.58097 80.3651 7.63352 80.1236 7.73864C79.8849 7.84375 79.6989 7.98722 79.5653 8.16903L77.9247 7.875L78.3381 3.27273H83.6733V4.78125H79.8594L79.6335 6.96733H79.6847C79.8381 6.75142 80.0696 6.57244 80.3793 6.4304C80.6889 6.28835 81.0355 6.21733 81.419 6.21733C81.9446 6.21733 82.4134 6.34091 82.8253 6.58807C83.2372 6.83523 83.5625 7.17472 83.8011 7.60653C84.0398 8.03551 84.1577 8.52983 84.1548 9.08949C84.1577 9.67756 84.0213 10.2003 83.7457 10.6577C83.473 11.1122 83.0909 11.4702 82.5994 11.7315C82.1108 11.9901 81.5426 12.1193 80.8949 12.1193ZM88.8636 12.1918C88.1307 12.1889 87.5 12.0085 86.9716 11.6506C86.446 11.2926 86.0412 10.7741 85.7571 10.0952C85.4759 9.41619 85.3366 8.59943 85.3395 7.64489C85.3395 6.69318 85.4801 5.8821 85.7614 5.21165C86.0455 4.54119 86.4503 4.03125 86.9759 3.68182C87.5043 3.32955 88.1335 3.15341 88.8636 3.15341C89.5938 3.15341 90.2216 3.32955 90.7472 3.68182C91.2756 4.03409 91.6818 4.54545 91.9659 5.21591C92.25 5.88352 92.3906 6.69318 92.3878 7.64489C92.3878 8.60227 92.2457 9.42045 91.9616 10.0994C91.6804 10.7784 91.277 11.2969 90.7514 11.6548C90.2259 12.0128 89.5966 12.1918 88.8636 12.1918ZM88.8636 10.6619C89.3636 10.6619 89.7628 10.4105 90.0611 9.90767C90.3594 9.40483 90.5071 8.65057 90.5043 7.64489C90.5043 6.98295 90.4361 6.43182 90.2997 5.99148C90.1662 5.55114 89.9759 5.22017 89.7287 4.99858C89.4844 4.77699 89.196 4.66619 88.8636 4.66619C88.3665 4.66619 87.9688 4.91477 87.6705 5.41193C87.3722 5.90909 87.2216 6.65341 87.2188 7.64489C87.2188 8.31534 87.2855 8.875 87.419 9.32386C87.5554 9.76989 87.7472 10.1051 87.9943 10.3295C88.2415 10.5511 88.5312 10.6619 88.8636 10.6619ZM96.532 3.27273H98.8075L101.211 9.13636H101.313L103.717 3.27273H105.992V12H104.202V6.3196H104.13L101.871 11.9574H100.653L98.3942 6.2983H98.3217V12H96.532V3.27273ZM107.478 12V5.45455H109.294V12H107.478ZM108.39 4.6108C108.12 4.6108 107.889 4.52131 107.696 4.34233C107.505 4.16051 107.41 3.94318 107.41 3.69034C107.41 3.44034 107.505 3.22585 107.696 3.04688C107.889 2.86506 108.12 2.77415 108.39 2.77415C108.66 2.77415 108.89 2.86506 109.081 3.04688C109.274 3.22585 109.37 3.44034 109.37 3.69034C109.37 3.94318 109.274 4.16051 109.081 4.34233C108.89 4.52131 108.66 4.6108 108.39 4.6108ZM112.563 3.27273V12H110.748V3.27273H112.563ZM115.833 3.27273V12H114.017V3.27273H115.833ZM120.244 12.1278C119.582 12.1278 119.01 11.9872 118.527 11.706C118.047 11.4219 117.676 11.027 117.415 10.5213C117.153 10.0128 117.023 9.4233 117.023 8.75284C117.023 8.0767 117.153 7.4858 117.415 6.98011C117.676 6.47159 118.047 6.0767 118.527 5.79545C119.01 5.51136 119.582 5.36932 120.244 5.36932C120.906 5.36932 121.477 5.51136 121.957 5.79545C122.44 6.0767 122.812 6.47159 123.074 6.98011C123.335 7.4858 123.466 8.0767 123.466 8.75284C123.466 9.4233 123.335 10.0128 123.074 10.5213C122.812 11.027 122.44 11.4219 121.957 11.706C121.477 11.9872 120.906 12.1278 120.244 12.1278ZM120.253 10.7216C120.554 10.7216 120.805 10.6364 121.007 10.4659C121.209 10.2926 121.361 10.0568 121.463 9.75852C121.568 9.46023 121.621 9.12074 121.621 8.74006C121.621 8.35938 121.568 8.01989 121.463 7.72159C121.361 7.4233 121.209 7.1875 121.007 7.0142C120.805 6.84091 120.554 6.75426 120.253 6.75426C119.949 6.75426 119.693 6.84091 119.486 7.0142C119.281 7.1875 119.126 7.4233 119.021 7.72159C118.919 8.01989 118.868 8.35938 118.868 8.74006C118.868 9.12074 118.919 9.46023 119.021 9.75852C119.126 10.0568 119.281 10.2926 119.486 10.4659C119.693 10.6364 119.949 10.7216 120.253 10.7216ZM126.462 8.21591V12H124.646V5.45455H126.376V6.60938H126.453C126.598 6.22869 126.841 5.92756 127.182 5.70597C127.523 5.48153 127.936 5.36932 128.422 5.36932C128.876 5.36932 129.273 5.46875 129.611 5.66761C129.949 5.86648 130.212 6.15057 130.399 6.51989C130.587 6.88636 130.68 7.32386 130.68 7.83239V12H128.865V8.15625C128.868 7.75568 128.766 7.44318 128.558 7.21875C128.351 6.99148 128.065 6.87784 127.702 6.87784C127.457 6.87784 127.241 6.9304 127.054 7.03551C126.869 7.14062 126.724 7.29403 126.619 7.49574C126.517 7.6946 126.464 7.93466 126.462 8.21591ZM135.094 12.1278C134.421 12.1278 133.841 11.9915 133.355 11.7188C132.873 11.4432 132.5 11.054 132.239 10.5511C131.978 10.0455 131.847 9.44744 131.847 8.7571C131.847 8.08381 131.978 7.4929 132.239 6.98438C132.5 6.47585 132.868 6.07955 133.343 5.79545C133.82 5.51136 134.38 5.36932 135.022 5.36932C135.453 5.36932 135.855 5.43892 136.228 5.57812C136.603 5.71449 136.929 5.92045 137.208 6.19602C137.489 6.47159 137.708 6.81818 137.864 7.2358C138.02 7.65057 138.098 8.13636 138.098 8.69318V9.19176H132.571V8.06676H136.39C136.39 7.8054 136.333 7.57386 136.219 7.37216C136.105 7.17045 135.948 7.01278 135.746 6.89915C135.547 6.78267 135.316 6.72443 135.051 6.72443C134.776 6.72443 134.532 6.78835 134.319 6.91619C134.108 7.04119 133.944 7.21023 133.824 7.4233C133.705 7.63352 133.644 7.8679 133.641 8.12642V9.19602C133.641 9.51989 133.701 9.79972 133.82 10.0355C133.942 10.2713 134.114 10.4531 134.336 10.581C134.557 10.7088 134.82 10.7727 135.124 10.7727C135.326 10.7727 135.51 10.7443 135.678 10.6875C135.846 10.6307 135.989 10.5455 136.108 10.4318C136.228 10.3182 136.319 10.179 136.381 10.0142L138.06 10.125C137.975 10.5284 137.8 10.8807 137.536 11.1818C137.275 11.4801 136.936 11.7131 136.522 11.8807C136.11 12.0455 135.634 12.1278 135.094 12.1278ZM144.729 7.32102L143.067 7.4233C143.039 7.28125 142.978 7.15341 142.884 7.03977C142.79 6.9233 142.667 6.83097 142.513 6.76278C142.363 6.69176 142.182 6.65625 141.972 6.65625C141.691 6.65625 141.453 6.71591 141.26 6.83523C141.067 6.9517 140.971 7.10795 140.971 7.30398C140.971 7.46023 141.033 7.59233 141.158 7.70028C141.283 7.80824 141.498 7.89489 141.801 7.96023L142.986 8.19886C143.623 8.32955 144.097 8.53977 144.409 8.82955C144.722 9.11932 144.878 9.5 144.878 9.97159C144.878 10.4006 144.752 10.777 144.499 11.1009C144.249 11.4247 143.905 11.6776 143.468 11.8594C143.033 12.0384 142.532 12.1278 141.963 12.1278C141.097 12.1278 140.407 11.9474 139.892 11.5866C139.381 11.223 139.081 10.7287 138.993 10.1037L140.779 10.0099C140.833 10.2741 140.963 10.4759 141.171 10.6151C141.378 10.7514 141.644 10.8196 141.968 10.8196C142.286 10.8196 142.542 10.7585 142.735 10.6364C142.931 10.5114 143.03 10.3509 143.033 10.1548C143.03 9.99006 142.961 9.85511 142.824 9.75C142.688 9.64205 142.478 9.55966 142.194 9.50284L141.06 9.27699C140.421 9.14915 139.945 8.92756 139.632 8.61222C139.323 8.29687 139.168 7.89489 139.168 7.40625C139.168 6.9858 139.282 6.62358 139.509 6.3196C139.739 6.01562 140.061 5.78125 140.476 5.61648C140.894 5.4517 141.382 5.36932 141.942 5.36932C142.769 5.36932 143.419 5.54403 143.894 5.89347C144.371 6.2429 144.65 6.71875 144.729 7.32102Z" fill="black"/>
<path d="M4.12926 58.1918C3.39631 58.1889 2.76563 58.0085 2.23722 57.6506C1.71165 57.2926 1.30682 56.7741 1.02273 56.0952C0.741477 55.4162 0.602273 54.5994 0.605114 53.6449C0.605114 52.6932 0.745739 51.8821 1.02699 51.2116C1.31108 50.5412 1.71591 50.0312 2.24148 49.6818C2.76989 49.3295 3.39915 49.1534 4.12926 49.1534C4.85938 49.1534 5.48722 49.3295 6.01278 49.6818C6.54119 50.0341 6.94744 50.5455 7.23153 51.2159C7.51563 51.8835 7.65625 52.6932 7.65341 53.6449C7.65341 54.6023 7.51136 55.4205 7.22727 56.0994C6.94602 56.7784 6.54261 57.2969 6.01705 57.6548C5.49148 58.0128 4.86222 58.1918 4.12926 58.1918ZM4.12926 56.6619C4.62926 56.6619 5.02841 56.4105 5.3267 55.9077C5.625 55.4048 5.77273 54.6506 5.76989 53.6449C5.76989 52.983 5.7017 52.4318 5.56534 51.9915C5.43182 51.5511 5.24148 51.2202 4.99432 50.9986C4.75 50.777 4.46165 50.6662 4.12926 50.6662C3.6321 50.6662 3.23438 50.9148 2.93608 51.4119C2.63778 51.9091 2.48722 52.6534 2.48438 53.6449C2.48438 54.3153 2.55114 54.875 2.68466 55.3239C2.82102 55.7699 3.01278 56.1051 3.25994 56.3295C3.5071 56.5511 3.79688 56.6619 4.12926 56.6619ZM11.7976 49.2727H14.0732L16.4766 55.1364H16.5788L18.9822 49.2727H21.2578V58H19.468V52.3196H19.3956L17.1371 57.9574H15.9183L13.6598 52.2983H13.5874V58H11.7976V49.2727ZM22.744 58V51.4545H24.5593V58H22.744ZM23.6559 50.6108C23.386 50.6108 23.1545 50.5213 22.9613 50.3423C22.771 50.1605 22.6758 49.9432 22.6758 49.6903C22.6758 49.4403 22.771 49.2259 22.9613 49.0469C23.1545 48.8651 23.386 48.7741 23.6559 48.7741C23.9258 48.7741 24.1559 48.8651 24.3462 49.0469C24.5394 49.2259 24.636 49.4403 24.636 49.6903C24.636 49.9432 24.5394 50.1605 24.3462 50.3423C24.1559 50.5213 23.9258 50.6108 23.6559 50.6108ZM27.8288 49.2727V58H26.0135V49.2727H27.8288ZM31.0984 49.2727V58H29.283V49.2727H31.0984ZM35.5099 58.1278C34.848 58.1278 34.2756 57.9872 33.7926 57.706C33.3125 57.4219 32.9418 57.027 32.6804 56.5213C32.419 56.0128 32.2884 55.4233 32.2884 54.7528C32.2884 54.0767 32.419 53.4858 32.6804 52.9801C32.9418 52.4716 33.3125 52.0767 33.7926 51.7955C34.2756 51.5114 34.848 51.3693 35.5099 51.3693C36.1719 51.3693 36.7429 51.5114 37.223 51.7955C37.706 52.0767 38.0781 52.4716 38.3395 52.9801C38.6009 53.4858 38.7315 54.0767 38.7315 54.7528C38.7315 55.4233 38.6009 56.0128 38.3395 56.5213C38.0781 57.027 37.706 57.4219 37.223 57.706C36.7429 57.9872 36.1719 58.1278 35.5099 58.1278ZM35.5185 56.7216C35.8196 56.7216 36.071 56.6364 36.2727 56.4659C36.4744 56.2926 36.6264 56.0568 36.7287 55.7585C36.8338 55.4602 36.8864 55.1207 36.8864 54.7401C36.8864 54.3594 36.8338 54.0199 36.7287 53.7216C36.6264 53.4233 36.4744 53.1875 36.2727 53.0142C36.071 52.8409 35.8196 52.7543 35.5185 52.7543C35.2145 52.7543 34.9588 52.8409 34.7514 53.0142C34.5469 53.1875 34.392 53.4233 34.2869 53.7216C34.1847 54.0199 34.1335 54.3594 34.1335 54.7401C34.1335 55.1207 34.1847 55.4602 34.2869 55.7585C34.392 56.0568 34.5469 56.2926 34.7514 56.4659C34.9588 56.6364 35.2145 56.7216 35.5185 56.7216ZM41.7273 54.2159V58H39.9119V51.4545H41.642V52.6094H41.7188C41.8636 52.2287 42.1065 51.9276 42.4474 51.706C42.7884 51.4815 43.2017 51.3693 43.6875 51.3693C44.142 51.3693 44.5384 51.4688 44.8764 51.6676C45.2145 51.8665 45.4773 52.1506 45.6648 52.5199C45.8523 52.8864 45.946 53.3239 45.946 53.8324V58H44.1307V54.1562C44.1335 53.7557 44.0313 53.4432 43.8239 53.2188C43.6165 52.9915 43.331 52.8778 42.9673 52.8778C42.723 52.8778 42.5071 52.9304 42.3196 53.0355C42.1349 53.1406 41.9901 53.294 41.8849 53.4957C41.7827 53.6946 41.7301 53.9347 41.7273 54.2159ZM50.3597 58.1278C49.6864 58.1278 49.1069 57.9915 48.6211 57.7188C48.1381 57.4432 47.766 57.054 47.5046 56.5511C47.2433 56.0455 47.1126 55.4474 47.1126 54.7571C47.1126 54.0838 47.2433 53.4929 47.5046 52.9844C47.766 52.4759 48.1339 52.0795 48.6083 51.7955C49.0856 51.5114 49.6452 51.3693 50.2873 51.3693C50.7191 51.3693 51.1211 51.4389 51.4933 51.5781C51.8683 51.7145 52.195 51.9205 52.4734 52.196C52.7546 52.4716 52.9734 52.8182 53.1296 53.2358C53.2859 53.6506 53.364 54.1364 53.364 54.6932V55.1918H47.837V54.0668H51.6552C51.6552 53.8054 51.5984 53.5739 51.4847 53.3722C51.3711 53.1705 51.2134 53.0128 51.0117 52.8991C50.8129 52.7827 50.5813 52.7244 50.3171 52.7244C50.0415 52.7244 49.7972 52.7884 49.5842 52.9162C49.3739 53.0412 49.2092 53.2102 49.0898 53.4233C48.9705 53.6335 48.9094 53.8679 48.9066 54.1264V55.196C48.9066 55.5199 48.9663 55.7997 49.0856 56.0355C49.2077 56.2713 49.3796 56.4531 49.6012 56.581C49.8228 56.7088 50.0856 56.7727 50.3896 56.7727C50.5913 56.7727 50.7759 56.7443 50.9435 56.6875C51.1112 56.6307 51.2546 56.5455 51.3739 56.4318C51.4933 56.3182 51.5842 56.179 51.6467 56.0142L53.3256 56.125C53.2404 56.5284 53.0657 56.8807 52.8015 57.1818C52.5401 57.4801 52.2021 57.7131 51.7873 57.8807C51.3754 58.0455 50.8995 58.1278 50.3597 58.1278ZM59.9947 53.321L58.3327 53.4233C58.3043 53.2812 58.2433 53.1534 58.1495 53.0398C58.0558 52.9233 57.9322 52.831 57.7788 52.7628C57.6282 52.6918 57.4478 52.6562 57.2376 52.6562C56.9563 52.6562 56.7191 52.7159 56.5259 52.8352C56.3327 52.9517 56.2362 53.108 56.2362 53.304C56.2362 53.4602 56.2987 53.5923 56.4237 53.7003C56.5487 53.8082 56.7631 53.8949 57.0671 53.9602L58.2518 54.1989C58.8881 54.3295 59.3626 54.5398 59.6751 54.8295C59.9876 55.1193 60.1438 55.5 60.1438 55.9716C60.1438 56.4006 60.0174 56.777 59.7646 57.1009C59.5146 57.4247 59.1708 57.6776 58.7333 57.8594C58.2987 58.0384 57.7972 58.1278 57.229 58.1278C56.3626 58.1278 55.6722 57.9474 55.158 57.5866C54.6467 57.223 54.3469 56.7287 54.2589 56.1037L56.0444 56.0099C56.0984 56.2741 56.229 56.4759 56.4364 56.6151C56.6438 56.7514 56.9094 56.8196 57.2333 56.8196C57.5515 56.8196 57.8072 56.7585 58.0004 56.6364C58.1964 56.5114 58.2958 56.3509 58.2987 56.1548C58.2958 55.9901 58.2262 55.8551 58.0898 55.75C57.9535 55.642 57.7433 55.5597 57.4592 55.5028L56.3256 55.277C55.6864 55.1491 55.2106 54.9276 54.8981 54.6122C54.5884 54.2969 54.4336 53.8949 54.4336 53.4062C54.4336 52.9858 54.5472 52.6236 54.7745 52.3196C55.0046 52.0156 55.3271 51.7812 55.7418 51.6165C56.1594 51.4517 56.6481 51.3693 57.2077 51.3693C58.0344 51.3693 58.685 51.544 59.1594 51.8935C59.6367 52.2429 59.9151 52.7187 59.9947 53.321Z" fill="black"/>
</svg>
